<svg width="43" height="40" viewBox="0 0 43 40" fill="none" xmlns="http://www.w3.org/2000/svg">
<path fill-rule="evenodd" clip-rule="evenodd" d="M20.9651 7.86672C20.5228 8.60813 20.0424 9.75321 19.3478 11.4183L19.2647 11.6175C18.8962 12.5008 18.5906 13.2334 18.2749 13.8109C17.9425 14.419 17.5607 14.9302 16.9992 15.3316C16.4377 15.733 15.8186 15.9373 15.1173 16.0683C14.4512 16.1926 13.6336 16.263 12.6478 16.3479L12.2228 16.3845C10.5014 16.5327 9.32748 16.6364 8.52942 16.8174C8.13764 16.9063 7.91901 16.9973 7.80105 17.0709C7.71209 17.1265 7.70182 17.1568 7.6965 17.1724C7.69625 17.1732 7.69601 17.1739 7.69578 17.1746C7.69554 17.1752 7.69529 17.1759 7.69503 17.1767C7.6894 17.1923 7.67855 17.2224 7.71454 17.3183C7.76226 17.4455 7.87928 17.645 8.13556 17.9435C8.65762 18.5515 9.52782 19.3161 10.8062 20.4345L11.6746 21.1941C12.281 21.7246 12.7846 22.1652 13.1693 22.5653C13.5738 22.9861 13.8966 23.4113 14.1083 23.932C14.18 24.1083 14.2395 24.2889 14.2866 24.4727C14.4258 25.0155 14.4169 25.5419 14.3385 26.1099C14.264 26.6501 14.1165 27.2893 13.9389 28.0589L13.8139 28.6009C13.4671 30.1036 13.2272 31.1498 13.1388 31.903C13.0554 32.6136 13.1489 32.7887 13.1511 32.7967C13.237 32.8861 13.3467 32.9511 13.4683 32.9848C13.4767 32.9831 13.6814 32.9849 14.3044 32.5943C14.9648 32.1803 15.8294 31.5047 17.0704 30.5323L17.1088 30.5023C17.878 29.8996 18.5113 29.4033 19.0684 29.0451C19.6502 28.671 20.2241 28.3962 20.8894 28.294C21.3602 28.2217 21.8398 28.2217 22.3106 28.294C22.9759 28.3962 23.5498 28.671 24.1316 29.0451C24.6886 29.4033 25.322 29.8996 26.0912 30.5022L26.1296 30.5323C27.3706 31.5047 28.2352 32.1803 28.8956 32.5943C29.5186 32.9849 29.7233 32.9831 29.7317 32.9848C29.8533 32.9511 29.963 32.8861 30.0489 32.7967C30.0511 32.7887 30.1446 32.6136 30.0612 31.903C29.9728 31.1498 29.7329 30.1036 29.3861 28.6009L29.2611 28.0588C29.0835 27.2892 28.936 26.6501 28.8615 26.1099C28.7831 25.5419 28.7742 25.0155 28.9134 24.4727C28.9605 24.2889 29.02 24.1083 29.0917 23.932C29.3034 23.4113 29.6262 22.9861 30.0307 22.5653C30.4153 22.1652 30.919 21.7246 31.5254 21.1941L32.3938 20.4345C33.6722 19.3161 34.5424 18.5515 35.0644 17.9435C35.3207 17.645 35.4377 17.4455 35.4855 17.3183C35.5215 17.2224 35.5106 17.1923 35.505 17.1767C35.5047 17.1759 35.5045 17.1752 35.5042 17.1746C35.504 17.1739 35.5037 17.1732 35.5035 17.1724C35.4982 17.1568 35.4879 17.1265 35.3989 17.0709C35.281 16.9973 35.0624 16.9063 34.6706 16.8174C33.8725 16.6364 32.6986 16.5327 30.9772 16.3845L30.5522 16.3479C29.5664 16.263 28.7488 16.1926 28.0827 16.0683C27.3813 15.9373 26.7623 15.733 26.2008 15.3316C25.6393 14.9302 25.2575 14.419 24.9251 13.8109C24.6094 13.2334 24.3038 12.5008 23.9353 11.6175L23.8522 11.4183C23.1576 9.75321 22.6772 8.60813 22.2349 7.86672C22.0167 7.50092 21.8498 7.30813 21.7322 7.21208C21.6456 7.14129 21.6131 7.14293 21.6021 7.14348C21.6013 7.14352 21.6006 7.14355 21.6 7.14355C21.5994 7.14355 21.5987 7.14352 21.5979 7.14348C21.5869 7.14293 21.5544 7.14129 21.4678 7.21208C21.3502 7.30813 21.1833 7.50092 20.9651 7.86672ZM19.1608 6.87164C19.6694 6.01896 20.3999 5.14355 21.6 5.14355C22.8001 5.14355 23.5306 6.01896 24.0392 6.87164C24.563 7.74969 25.096 9.02764 25.7498 10.5948L25.8462 10.826C26.2392 11.7681 26.5061 12.4046 26.7662 12.8804C27.0152 13.3358 27.2184 13.5668 27.4418 13.7266C27.6653 13.8863 27.9539 14.0069 28.4792 14.1049C29.028 14.2074 29.7387 14.2698 30.7902 14.3604L31.2508 14.4C32.8624 14.5388 34.1872 14.6528 35.1483 14.8709C36.0984 15.0865 37.1106 15.4931 37.4757 16.537C37.8408 17.5809 37.2899 18.493 36.6684 19.2168C36.0397 19.949 35.0558 20.8097 33.8589 21.8566L32.9576 22.6451C32.3106 23.2111 31.8744 23.5939 31.5581 23.9229C31.2547 24.2385 31.1128 24.454 31.029 24.6602C30.9904 24.7551 30.9583 24.8523 30.9329 24.9513C30.8779 25.1662 30.8647 25.421 30.9234 25.847C30.9847 26.2911 31.1117 26.8457 31.3012 27.6668L31.4312 28.2303C31.7602 29.6558 32.0257 30.8067 32.1281 31.6787C32.224 32.4959 32.2365 33.4479 31.603 34.1261C31.2469 34.5074 30.784 34.7819 30.2698 34.9168C29.3551 35.1568 28.476 34.7188 27.7596 34.2697C26.995 33.7904 26.0447 33.0457 24.8675 32.1233L24.8157 32.0828C23.9986 31.4425 23.441 31.007 22.9753 30.7076C22.5251 30.4181 22.2379 30.3082 21.9826 30.269C21.7291 30.2301 21.4709 30.2301 21.2174 30.269C20.9621 30.3082 20.6749 30.4181 20.2247 30.7076C19.759 31.007 19.2014 31.4425 18.3843 32.0828L18.3326 32.1233C17.1554 33.0457 16.205 33.7904 15.4404 34.2697C14.724 34.7188 13.8449 35.1568 12.9302 34.9168C12.416 34.7819 11.9531 34.5074 11.597 34.1261C10.9635 33.4479 10.976 32.4959 11.0719 31.6787C11.1743 30.8067 11.4398 29.6558 11.7688 28.2303L11.8988 27.6668C12.0883 26.8457 12.2153 26.2911 12.2766 25.847C12.3353 25.421 12.3221 25.1662 12.2671 24.9513C12.2417 24.8523 12.2096 24.7551 12.171 24.6602C12.0872 24.454 11.9453 24.2385 11.6419 23.9229C11.3256 23.5939 10.8894 23.2111 10.2424 22.6451L9.34107 21.8566C8.14423 20.8097 7.16029 19.949 6.53159 19.2168C5.91008 18.493 5.35915 17.5809 5.72429 16.537C6.08943 15.4931 7.10159 15.0865 8.05168 14.8709C9.01276 14.6528 10.3376 14.5388 11.9492 14.4L12.4098 14.3604C13.4613 14.2698 14.172 14.2074 14.7208 14.1049C15.2461 14.0069 15.5347 13.8863 15.7582 13.7266C15.9816 13.5668 16.1848 13.3358 16.4338 12.8804C16.6939 12.4046 16.9608 11.7681 17.3538 10.826L17.4502 10.5947C18.104 9.02763 18.637 7.74968 19.1608 6.87164Z" fill="#FE9901"/>
<path fill-rule="evenodd" clip-rule="evenodd" d="M19.161 6.87164C19.6697 6.01896 20.4001 5.14355 21.6002 5.14355C22.8003 5.14355 23.5308 6.01896 24.0394 6.87164C24.5632 7.74969 25.0963 9.02764 25.75 10.5948L25.8464 10.826C26.2395 11.7681 26.5064 12.4046 26.7665 12.8804C27.0154 13.3358 27.2186 13.5668 27.4421 13.7266C27.6655 13.8863 27.9541 14.0069 28.4794 14.1049C29.0282 14.2074 29.7389 14.2698 30.7905 14.3604L31.251 14.4C32.8626 14.5388 34.1875 14.6528 35.1486 14.8709C36.0987 15.0865 37.1108 15.4931 37.476 16.537C37.8411 17.5809 37.2902 18.493 36.6686 19.2168C36.04 19.949 35.056 20.8097 33.8592 21.8566L32.9579 22.6451C32.3108 23.2111 31.8746 23.5939 31.5583 23.9229C31.255 24.2385 31.113 24.454 31.0292 24.6602C30.9906 24.7551 30.9585 24.8523 30.9332 24.9513C30.8781 25.1662 30.8649 25.421 30.9237 25.847C30.9849 26.2911 31.112 26.8457 31.3014 27.6668L31.4315 28.2303C31.7604 29.6558 32.026 30.8067 32.1283 31.6787C32.2242 32.4959 32.2368 33.4478 31.6033 34.1261C31.2471 34.5074 30.7842 34.7819 30.27 34.9168C29.3554 35.1568 28.4762 34.7188 27.7598 34.2697C26.9953 33.7904 26.0449 33.0457 24.8677 32.1233L24.8159 32.0828C23.9988 31.4425 23.4412 31.007 22.9756 30.7076C22.5254 30.4181 22.2381 30.3082 21.9829 30.269C21.7294 30.2301 21.4711 30.2301 21.2176 30.269C20.9624 30.3082 20.6751 30.4181 20.2249 30.7076C19.7592 31.007 19.2017 31.4425 18.3846 32.0828L18.3328 32.1233C17.1556 33.0457 16.2052 33.7904 15.4407 34.2697C14.7242 34.7188 13.8451 35.1568 12.9305 34.9168C12.4163 34.7819 11.9534 34.5074 11.5972 34.1261C10.9637 33.4478 10.9762 32.4959 11.0722 31.6787C11.1745 30.8067 11.4401 29.6558 11.769 28.2303L11.8991 27.6668C12.0885 26.8457 12.2156 26.2911 12.2768 25.847C12.3356 25.421 12.3224 25.1662 12.2673 24.9513C12.2419 24.8523 12.2099 24.7551 12.1713 24.6602C12.0875 24.454 11.9455 24.2385 11.6422 23.9229C11.3259 23.5939 10.8897 23.2111 10.2426 22.6451L9.34132 21.8566C8.14447 20.8097 7.16053 19.949 6.53184 19.2168C5.91032 18.493 5.35939 17.5809 5.72454 16.537C6.08968 15.4931 7.10183 15.0865 8.05193 14.8709C9.013 14.6528 10.3379 14.5388 11.9494 14.4L12.41 14.3604C13.4616 14.2698 14.1723 14.2074 14.7211 14.1049C15.2463 14.0069 15.5349 13.8863 15.7584 13.7266C15.9819 13.5668 16.1851 13.3358 16.434 12.8804C16.6941 12.4046 16.961 11.7681 17.354 10.826L17.4505 10.5947C18.1042 9.02763 18.6373 7.74968 19.161 6.87164Z" fill="#FE9901"/>
</svg>
