<svg width="42" height="40" viewBox="0 0 42 40" fill="none" xmlns="http://www.w3.org/2000/svg">
<path fill-rule="evenodd" clip-rule="evenodd" d="M20.5651 7.86672C20.1228 8.60813 19.6424 9.75321 18.9477 11.4183L18.8646 11.6175C18.4962 12.5008 18.1906 13.2334 17.8749 13.8109C17.5425 14.419 17.1607 14.9302 16.5992 15.3316C16.0377 15.733 15.4186 15.9373 14.7173 16.0683C14.0512 16.1926 13.2335 16.263 12.2478 16.3479L11.8227 16.3845C10.1014 16.5327 8.92746 16.6364 8.12939 16.8174C7.73762 16.9063 7.51899 16.9973 7.40103 17.0709C7.31206 17.1265 7.3018 17.1568 7.29648 17.1724C7.29623 17.1732 7.29599 17.1739 7.29575 17.1746C7.29552 17.1752 7.29527 17.1759 7.295 17.1767C7.28938 17.1923 7.27852 17.2224 7.31451 17.3183C7.36223 17.4455 7.47925 17.645 7.73554 17.9435C8.25759 18.5515 9.1278 19.3161 10.4062 20.4345L11.2745 21.1941C11.881 21.7246 12.3846 22.1652 12.7693 22.5653C13.1738 22.9861 13.4966 23.4113 13.7083 23.932C13.7799 24.1083 13.8395 24.2889 13.8866 24.4727C14.0257 25.0155 14.0168 25.5419 13.9385 26.1099C13.864 26.6501 13.7165 27.2893 13.5389 28.0589L13.4138 28.6009C13.0671 30.1036 12.8272 31.1498 12.7388 31.903C12.6554 32.6136 12.7489 32.7887 12.7511 32.7967C12.837 32.8861 12.9467 32.9511 13.0683 32.9848C13.0767 32.9831 13.2813 32.9849 13.9044 32.5943C14.5648 32.1803 15.4294 31.5047 16.6704 30.5323L16.7087 30.5023C17.4779 29.8996 18.1113 29.4033 18.6684 29.0451C19.2501 28.671 19.8241 28.3962 20.4894 28.294C20.9601 28.2217 21.4398 28.2217 21.9106 28.294C22.5759 28.3962 23.1498 28.671 23.7316 29.0451C24.2886 29.4033 24.922 29.8996 25.6911 30.5022L25.7296 30.5323C26.9706 31.5047 27.8352 32.1803 28.4956 32.5943C29.1186 32.9849 29.3233 32.9831 29.3316 32.9848C29.4533 32.9511 29.563 32.8861 29.6489 32.7967C29.651 32.7887 29.7446 32.6136 29.6612 31.903C29.5728 31.1498 29.3329 30.1036 28.9861 28.6009L28.861 28.0588C28.6834 27.2892 28.5359 26.6501 28.4614 26.1099C28.3831 25.5419 28.3742 25.0155 28.5133 24.4727C28.5604 24.2889 28.62 24.1083 28.6917 23.932C28.9034 23.4113 29.2261 22.9861 29.6306 22.5653C30.0153 22.1652 30.519 21.7246 31.1254 21.1941L31.9938 20.4345C33.2722 19.3161 34.1424 18.5515 34.6644 17.9435C34.9207 17.645 35.0377 17.4455 35.0854 17.3183C35.1214 17.2224 35.1106 17.1923 35.1049 17.1767C35.1047 17.1759 35.1044 17.1752 35.1042 17.1746C35.104 17.1739 35.1037 17.1732 35.1035 17.1724C35.0982 17.1568 35.0879 17.1265 34.9989 17.0709C34.881 16.9973 34.6623 16.9063 34.2706 16.8174C33.4725 16.6364 32.2986 16.5327 30.5772 16.3845L30.1522 16.3479C29.1664 16.263 28.3487 16.1926 27.6827 16.0683C26.9813 15.9373 26.3623 15.733 25.8008 15.3316C25.2393 14.9302 24.8575 14.419 24.525 13.8109C24.2094 13.2334 23.9037 12.5008 23.5353 11.6175L23.4522 11.4183C22.7576 9.75321 22.2771 8.60813 21.8349 7.86672C21.6167 7.50092 21.4498 7.30813 21.3322 7.21208C21.2455 7.14129 21.2131 7.14293 21.2021 7.14348C21.2013 7.14352 21.2006 7.14355 21.2 7.14355C21.1994 7.14355 21.1987 7.14352 21.1979 7.14348C21.1869 7.14293 21.1544 7.14129 21.0678 7.21208C20.9502 7.30813 20.7833 7.50092 20.5651 7.86672ZM18.7608 6.87164C19.2694 6.01896 19.9999 5.14355 21.2 5.14355C22.4001 5.14355 23.1305 6.01896 23.6392 6.87164C24.1629 7.74969 24.696 9.02764 25.3497 10.5948L25.4462 10.826C25.8392 11.7681 26.1061 12.4046 26.3662 12.8804C26.6152 13.3358 26.8184 13.5668 27.0418 13.7266C27.2653 13.8863 27.5539 14.0069 28.0792 14.1049C28.6279 14.2074 29.3387 14.2698 30.3902 14.3604L30.8508 14.4C32.4623 14.5388 33.7872 14.6528 34.7483 14.8709C35.6984 15.0865 36.7105 15.4931 37.0757 16.537C37.4408 17.5809 36.8899 18.493 36.2684 19.2168C35.6397 19.949 34.6558 20.8097 33.4589 21.8566L32.5576 22.6451C31.9105 23.2111 31.4744 23.5939 31.158 23.9229C30.8547 24.2385 30.7127 24.454 30.6289 24.6602C30.5904 24.7551 30.5583 24.8523 30.5329 24.9513C30.4778 25.1662 30.4646 25.421 30.5234 25.847C30.5847 26.2911 30.7117 26.8457 30.9012 27.6668L31.0312 28.2303C31.3601 29.6558 31.6257 30.8067 31.7281 31.6787C31.824 32.4959 31.8365 33.4479 31.203 34.1261C30.8468 34.5074 30.384 34.7819 29.8697 34.9168C28.9551 35.1568 28.076 34.7188 27.3596 34.2697C26.595 33.7904 25.6446 33.0457 24.4674 32.1233L24.4156 32.0828C23.5985 31.4425 23.041 31.007 22.5753 30.7076C22.1251 30.4181 21.8378 30.3082 21.5826 30.269C21.3291 30.2301 21.0708 30.2301 20.8174 30.269C20.5621 30.3082 20.2748 30.4181 19.8246 30.7076C19.359 31.007 18.8014 31.4425 17.9843 32.0828L17.9326 32.1233C16.7553 33.0457 15.8049 33.7904 15.0404 34.2697C14.324 34.7188 13.4449 35.1568 12.5302 34.9168C12.016 34.7819 11.5531 34.5074 11.1969 34.1261C10.5634 33.4479 10.576 32.4959 10.6719 31.6787C10.7742 30.8067 11.0398 29.6558 11.3688 28.2303L11.4988 27.6668C11.6883 26.8457 11.8153 26.2911 11.8766 25.847C11.9353 25.421 11.9221 25.1662 11.867 24.9513C11.8417 24.8523 11.8096 24.7551 11.771 24.6602C11.6872 24.454 11.5453 24.2385 11.2419 23.9229C10.9256 23.5939 10.4894 23.2111 9.84236 22.6451L8.94105 21.8566C7.7442 20.8097 6.76026 19.949 6.13157 19.2168C5.51006 18.493 4.95913 17.5809 5.32427 16.537C5.68941 15.4931 6.70156 15.0865 7.65166 14.8709C8.61274 14.6528 9.93761 14.5388 11.5492 14.4L12.0098 14.3604C13.0613 14.2698 13.772 14.2074 14.3208 14.1049C14.8461 14.0069 15.1347 13.8863 15.3581 13.7266C15.5816 13.5668 15.7848 13.3358 16.0338 12.8804C16.2939 12.4046 16.5607 11.7681 16.9538 10.826L17.0502 10.5947C17.7039 9.02763 18.237 7.74968 18.7608 6.87164Z" fill="#FE9901"/>
</svg>
